<svg xmlns="http://www.w3.org/2000/svg" version="1.2" viewBox="0 0 492 149">
  <path fill-rule="evenodd" fill="#333" d="m184.3 92v1.8q0 1.3-0.9 2.2-1 0.9-2.3 0.9-1.3 0-2.2-0.9-0.9-0.9-0.9-2.2v-45q0-1.3 0.9-2.2 0.9-0.9 2.2-0.9 1.4 0 2.3 0.9 0.9 0.9 0.9 2.2v17q5-5.3 11.8-5.3 4.3 0 8.1 2.2 3.9 2.2 6.3 6.4 2.4 4.2 2.4 9.8 0 5.6-2.4 9.8-2.4 4.2-6.3 6.3-3.8 2.2-8.1 2.2-6.8 0-11.8-5.2zm19.2-3.9q3.1-3.3 3.1-9.2 0-6-3.1-9.2-3.2-3.3-8.3-3.3-3.2 0-6 1.4-2.8 1.5-4.9 3.8v14.5q2.1 2.4 4.9 3.8 2.8 1.4 6 1.4 5.1 0 8.3-3.2z" />
  <path fill="#333" d="m231.7 95.4q-2.8-1.8-4.3-4.9-1.5-3.1-1.5-6.8v-19.7q0-1.3 0.9-2.2 0.9-0.9 2.3-0.9 1.3 0 2.2 0.9 0.9 0.9 0.9 2.2v19q0 8.4 7.6 8.4 3.4 0 6.2-1.8 2.7-1.8 5.1-4.8v-20.8q0-1.3 1-2.2 0.9-0.9 2.2-0.9 1.3 0 2.2 0.9 0.9 0.9 0.9 2.2v29.7q0 1.3-0.9 2.3-0.9 0.9-2.2 0.9-1.3 0-2.2-0.9-1-1-1-2.3v-2.8q-2.6 2.9-5.6 4.6-3.1 1.7-7.2 1.7-3.8 0-6.6-1.8z" />
  <path fill="#333" d="m275 88.1v-21.5h-4.9q-0.6 0-0.9-0.3-0.4-0.4-0.4-1 0-0.7 0.6-1.2l9.4-9.2q0.6-0.6 1.2-0.6 0.6 0 0.9 0.4 0.4 0.5 0.4 1v5.5h7.8q1.2 0 2 0.8 0.7 0.8 0.7 1.9 0 1.2-0.7 1.9-0.8 0.8-2 0.8h-7.8v20.9q0 2.7 1.3 3.5 1.3 0.7 3.2 0.7 1.4 0 2.8-0.4 0.3-0.1 0.6-0.1 0.3-0.1 0.8-0.1 0.9 0 1.7 0.7 0.8 0.7 0.8 1.8 0 1.6-1.6 2.4-2.7 1.2-5.8 1.3-10.1 0-10.1-9.2z" />
  <path fill="#333" d="m306 88.1v-21.5h-4.9q-0.6 0-0.9-0.3-0.4-0.4-0.4-1 0-0.7 0.6-1.2l9.4-9.2q0.6-0.6 1.2-0.6 0.6 0 0.9 0.4 0.4 0.5 0.4 1v5.5h7.8q1.2 0 2 0.8 0.7 0.8 0.7 1.9 0 1.2-0.7 1.9-0.8 0.8-2 0.8h-7.8v20.9q0 2.7 1.3 3.5 1.3 0.7 3.2 0.7 1.4 0 2.8-0.4 0.3-0.1 0.6-0.1 0.3-0.1 0.8-0.1 0.9 0 1.7 0.7 0.8 0.7 0.8 1.8 0 1.6-1.6 2.4-2.7 1.2-5.8 1.3-10.1 0-10.1-9.2z" />
  <path fill-rule="evenodd" fill="#333" d="m337.1 92.4q-4.8-4.8-4.8-13.5 0-4.9 1.8-9.1 1.8-4.1 5.6-6.7 3.7-2.6 9.2-2.6 5.1 0 8.8 2.4 3.7 2.4 5.7 6.4 1.9 4 1.9 8.7 0 1.3-0.8 2.2-0.9 0.9-2.4 0.9h-23.4q0.5 4.8 3.6 7.5 3 2.7 8.5 2.7 2.9 0 5.1-0.5 2.1-0.6 4.2-1.6 0.6-0.3 1.3-0.3 1.1 0 1.9 0.8 0.8 0.7 0.9 1.9-0.1 1.5-1.9 2.6-2.7 1.5-5.3 2.3-2.6 0.7-6.8 0.7-8.4 0-13.1-4.8zm22-16.4q-0.2-3.4-1.8-5.7-1.5-2.3-3.8-3.4-2.3-1-4.6-1-2.4 0-4.7 1-2.3 1.1-3.8 3.4-1.5 2.3-1.7 5.7c0 0 20.4 0 20.4 0z" />
  <path fill="#333" d="m379.1 96q-0.9-0.9-0.9-2.2v-29.7q0-1.3 0.9-2.3 0.9-0.9 2.2-0.9 1.3 0 2.2 0.9 1 1 1 2.3v3q4.8-6.6 10.8-6.6h0.4q1.3 0 2.2 0.9 0.8 0.9 0.8 2.3 0 1.3-0.9 2.1-0.9 0.8-2.2 0.8h-0.4q-3.3 0-6.1 1.7-2.7 1.6-4.6 4.4v21.1q0 1.3-0.9 2.2-1 0.9-2.3 0.9-1.3 0-2.2-0.9z" />
  <path fill="#333" d="m412.8 96q-0.9-0.9-0.9-2.2v-27.2h-4.1q-1.1 0-1.9-0.8-0.8-0.8-0.8-1.9 0-1.1 0.8-1.9 0.8-0.8 1.9-0.8h4.1v-4q0-4.1 1.5-6.8 1.5-2.7 3.9-3.9 2.3-1.2 5-1.2 3.2 0 6 1.4 0.7 0.3 1.1 1 0.5 0.6 0.5 1.4 0 1-0.8 1.8-0.7 0.8-1.8 0.8-0.7 0-1.6-0.2-1.6-0.2-1.8-0.2-2.9 0-4.3 1.3-1.4 1.4-1.4 4.8v3.8h8.6q1.2 0 2 0.8 0.7 0.7 0.7 1.9 0 1.1-0.7 1.9-0.8 0.8-2 0.8h-8.6v27.1q0 1.4-0.9 2.3-1 0.8-2.3 0.9-1.3 0-2.2-0.9z" />
  <path fill="#333" d="m441.2 96q-0.9-0.9-0.9-2.2v-44.9q0-1.4 0.9-2.3 0.9-0.9 2.2-0.9 1.4 0 2.3 0.9 0.9 0.9 0.9 2.3v44.9q0 1.3-1 2.2-0.9 0.9-2.2 0.9-1.3 0-2.2-0.9z" />
  <path fill="#333" d="m467.8 111.9q-0.8-0.9-0.8-2.2 0-0.5 0.2-1.1l4.5-11.5-13-31.7q-0.3-0.7-0.3-1.3 0-1.4 0.9-2.3 0.9-0.9 2.2-0.9 1 0 1.8 0.5 0.8 0.6 1.1 1.4l10.7 26.5 10.8-26.3q0.9-2.1 2.9-2.1 1.4 0 2.2 0.9 0.9 0.9 0.9 2.3 0 0.6-0.2 1.1l-18.9 45.4q-0.9 2.2-2.9 2.2-1.2 0-2.1-0.9z" />
  <path fill="#ee224a" d="m107 89.5c0 0 23.5 53.1 48.2 28.7 0 0-27.5-32.2-48.2-28.7z" />
  <path fill="#00b481" d="m150.2 13.9c0 0-15 44.4-54.2 60.4 0 0-1.3-44.5 49.5-69.1 0 0 13-5.3 4.6 8.7z" />
  <path fill="#8b79b8" d="m2.9 56.8c0 0 16.3 7.6 19 13.4 2.8 5.7 11.6 30.3 23.7 34.8 12.2 4.4 14.4 2.5 15.5-4.7 1.1-7.2-10.4-51.7-58.2-43.5z" />
  <path fill="#333" d="m88.7 61.2c-1 0-2-0.6-2.5-1.6-10.7-20.1-35.3-23.6-35.6-23.6-1.6-0.2-2.7-1.7-2.5-3.2 0.3-1.6 1.7-2.7 3.3-2.5 0.9 0.1 19.5 2.7 32.6 16.6-0.4-19.1 11-34 11.6-34.8 1-1.2 2.8-1.4 4.1-0.4 1.2 0.9 1.4 2.7 0.4 4-0.1 0.2-15.2 20-8.7 41.8 0.5 1.4-0.3 2.9-1.6 3.5q-0.6 0.2-1.1 0.2z" />
  <path fill-rule="evenodd" fill="#333" d="m79 148.7c-4.5 0-9-1.3-13-3.8-9.1-5.6-13.7-16.4-12.3-28.8q0.3-3.1 0.9-5.9-10.2-0.3-18.4-8.9c-6.6-6.9-10.7-16.3-13.7-23.2-1.2-2.7-2.2-5.1-3-6.4-3-4.8-8.9-7.6-13.2-9.6-3.1-1.4-5-2.3-5.9-3.9-0.6-1.2-0.5-2.6 0.4-3.8 2-2.6 9-5 17.8-6.1 8-1 21.1-1.4 37.9 2.7 14.6 3.5 26.9 10.4 36.8 20.4 1.1-11.8 5.3-25.4 15.8-39 10.6-13.7 21.1-21.6 27.9-25.9 7.6-4.6 14.5-7.1 17.7-6.3 1.4 0.3 2.4 1.3 2.7 2.7 0.3 1.8-0.6 3.6-2.1 6.7-2.1 4.3-5 10.2-4.3 15.8 0.2 1.5 0.9 4 1.7 6.9 1.9 7.2 4.7 17.1 3.9 26.6-0.7 7.9-3.6 14-8.9 18.5q2.3 1.8 4.5 4c9.4 9.3 12.8 21.6 8.9 32-3.2 8.9-11.1 14.6-21 15.4q-0.6 0-1.1 0c-11.3 0-19.9-12.9-27.4-25.8 2.2 7.9 1.8 13-1.1 14.9q-0.6 0.4-1.3 0.5c-3.7 0.4-7.3-3.7-10.7-12 2.1 15.4 3.8 32-5.9 38.2-4.2 2.7-8.9 4.1-13.6 4.1zm-18.3-39.1q-0.8 3.2-1.3 7.2c-1.1 10.1 2.5 18.8 9.6 23.3 6.3 3.9 14.1 3.7 20.5-0.3 7.3-4.6 4.8-21.9 2.8-35.8-1.6-11.7-2.9-20.6 0.2-24.9-7.7-9.3-19.5-18.3-37.3-22.5-15.6-3.8-27.8-3.6-35.2-2.7-5.6 0.6-9.6 1.7-12 2.7q0.4 0.1 0.7 0.3c4.7 2.2 11.8 5.5 15.7 11.8 1 1.6 2.1 4 3.4 7.1 2.8 6.5 6.7 15.4 12.6 21.6 4.7 4.9 9.9 7.3 15.9 7 5.8-16.3 18.3-21.9 24.8-21.9 3.9 0 7.2 2.6 7.8 6.2 0.7 4-1.4 11.9-23.4 19.6q-2.4 0.9-4.8 1.3zm38-32.8c5.1 1.3 9.6 9 15.4 19.1 7.2 12.4 16.1 27.9 25.6 27.2 7.6-0.6 13.6-5 16-11.7 3.1-8.3 0.2-18.2-7.5-25.9q-2.8-2.8-5.5-4.8-2.1 1.2-4.6 2c-21.8 7.7-28.4 2.8-30.4-0.7-1.8-3.2-0.9-7.4 2.2-9.9 4.9-4 18.2-7.5 33 1.8 4.8-3.6 7.4-8.7 8-15.5 0.7-8.4-1.9-17.8-3.8-24.6-0.9-3.2-1.5-5.8-1.8-7.7-0.9-7.3 2.5-14.4 4.8-19q0.2-0.4 0.4-0.8c-2.5 0.8-6.3 2.5-11 5.5-6.4 4-16 11.4-25.8 24.1-11.2 14.5-14.7 28.9-15 40.9zm0.9 12.5c0.9 5.7 2.4 10.3 3.6 13.4 1.6 4.3 3 6.8 4.1 8.2-0.1-1.7-0.6-4.4-1.9-8.6-1.1-3.3-2.9-7.9-5.8-13zm-18.6-1.1c-2.1 0-6.8 1.2-11.6 5.7-2 2-4.4 4.9-6.4 9.2q0.3-0.1 0.6-0.2c16.3-5.8 20-11.2 19.6-13.3-0.1-0.9-1.2-1.4-2.1-1.4zm42.5-14.5c-4.6 0-8.2 1.4-10 2.8-0.8 0.7-1.3 1.8-0.9 2.7 1.1 1.8 7.3 3.8 23.5-1.9q0.3-0.1 0.6-0.2c-4.8-2.5-9.3-3.4-13.2-3.4zm28.1-70.2z" />
</svg>