<svg version="1.2" xmlns="http://www.w3.org/2000/svg" xmlns:xlink="http://www.w3.org/1999/xlink" overflow="visible" preserveAspectRatio="none" viewBox="0 0 24 24" width="24" height="24"><g><path xmlns:default="http://www.w3.org/2000/svg" id="user-o" d="M16.51,10.83c0.93-1.47,1.08-3.3,0.4-4.9c-0.54-1.28-1.56-2.3-2.84-2.84c-1.32-0.56-2.81-0.56-4.13,0  C8.65,3.63,7.63,4.65,7.09,5.94c-0.68,1.6-0.53,3.43,0.4,4.9c-0.32,0.1-0.64,0.23-0.93,0.4C6.21,11.45,5.9,11.7,5.63,12  c-0.34,0.36-0.61,0.76-0.83,1.2c-0.26,0.57-0.46,1.18-0.57,1.8C4.07,15.81,3.99,16.63,4,17.45c-0.03,1.01,0.33,1.99,1,2.74  c0.63,0.73,1.55,1.15,2.51,1.14h8.89c0.99,0.03,1.95-0.39,2.6-1.14c0.67-0.75,1.03-1.73,1-2.74c0.01-0.82-0.07-1.64-0.23-2.45  c-0.11-0.62-0.31-1.22-0.57-1.79c-0.22-0.44-0.49-0.84-0.83-1.2c-0.27-0.3-0.58-0.55-0.93-0.76c-0.29-0.17-0.61-0.3-0.93-0.4l0,0  V10.83z M14.83,5.18C15.59,5.92,16.02,6.94,16,8c0.02,1.06-0.41,2.09-1.17,2.83C14.09,11.59,13.06,12.02,12,12  c-1.06,0.02-2.09-0.41-2.83-1.17C8.41,10.09,7.98,9.06,8,8C7.98,6.94,8.41,5.92,9.17,5.18C9.91,4.41,10.93,3.98,12,4  C13.07,3.98,14.09,4.41,14.83,5.18z M16.45,20h-8.9c-0.6,0-1.17-0.28-1.55-0.75c-0.44-0.5-0.67-1.15-0.65-1.81  c-0.07-1.36,0.22-2.71,0.82-3.93C6.61,12.62,7.51,12.04,8.5,12c2,1.76,5,1.76,7,0c1,0.03,1.9,0.61,2.35,1.51  c0.6,1.22,0.89,2.57,0.82,3.93c0.01,0.67-0.23,1.31-0.67,1.81c-0.38,0.47-0.96,0.75-1.57,0.74l0,0L16.45,20z" style="fill: rgb(18, 18, 18);" vector-effect="non-scaling-stroke"/></g></svg>